<?xml version="1.0" encoding="utf-8"?>
<svg version="1.1" xmlns:xlink="http://www.w3.org/1999/xlink" width="38px" height="33px" xmlns="http://www.w3.org/2000/svg">
  <defs>
    <mask fill="white" id="clip141">
      <path d="M 0 30.25  L 0 2.75  C 0 1.2099999999999937  0.6079999999999969 0  1.3818181818181818 0  L 36.61818181818182 0  C 37.392 0  38 1.2099999999999937  38 2.75  L 38 19.962962962964117  L 38 30.25  C 38 31.790000000000006  37.392 33  36.61818181818182 33  L 1.3818181818181818 33  C 0.6079999999999969 33  0 31.790000000000006  0 30.25  Z " fill-rule="evenodd" />
    </mask>
  </defs>
  <g transform="matrix(1 0 0 1 -458 -173 )">
    <path d="M 0 30.25  L 0 2.75  C 0 1.2099999999999937  0.6079999999999969 0  1.3818181818181818 0  L 36.61818181818182 0  C 37.392 0  38 1.2099999999999937  38 2.75  L 38 19.962962962964117  L 38 30.25  C 38 31.790000000000006  37.392 33  36.61818181818182 33  L 1.3818181818181818 33  C 0.6079999999999969 33  0 31.790000000000006  0 30.25  Z " fill-rule="nonzero" fill="#02a7f0" stroke="none" transform="matrix(1 0 0 1 458 173 )" />
    <path d="M 0 30.25  L 0 2.75  C 0 1.2099999999999937  0.6079999999999969 0  1.3818181818181818 0  L 36.61818181818182 0  C 37.392 0  38 1.2099999999999937  38 2.75  L 38 19.962962962964117  L 38 30.25  C 38 31.790000000000006  37.392 33  36.61818181818182 33  L 1.3818181818181818 33  C 0.6079999999999969 33  0 31.790000000000006  0 30.25  Z " stroke-width="2" stroke="#02a7f0" fill="none" transform="matrix(1 0 0 1 458 173 )" mask="url(#clip141)" />
  </g>
</svg>