<?xml version="1.0" encoding="utf-8"?>
<svg version="1.1" xmlns:xlink="http://www.w3.org/1999/xlink" width="26px" height="26px" xmlns="http://www.w3.org/2000/svg">
  <defs>
    <filter x="1280px" y="279px" width="26px" height="26px" filterUnits="userSpaceOnUse" id="filter143">
      <feOffset dx="1" dy="1" in="SourceAlpha" result="shadowOffsetInner" />
      <feGaussianBlur stdDeviation="2.5" in="shadowOffsetInner" result="shadowGaussian" />
      <feComposite in2="shadowGaussian" operator="atop" in="SourceAlpha" result="shadowComposite" />
      <feColorMatrix type="matrix" values="0 0 0 0 0  0 0 0 0 0  0 0 0 0 0  0 0 0 0.6980392156862745 0  " in="shadowComposite" />
    </filter>
    <g id="widget144">
      <path d="M 1292 283  C 1296.48 283  1300 286.52  1300 291  C 1300 295.48  1296.48 299  1292 299  C 1287.52 299  1284 295.48  1284 291  C 1284 286.52  1287.52 283  1292 283  Z " fill-rule="nonzero" fill="#ffffff" stroke="none" />
      <path d="M 1292 283.5  C 1296.2 283.5  1299.5 286.8  1299.5 291  C 1299.5 295.2  1296.2 298.5  1292 298.5  C 1287.8 298.5  1284.5 295.2  1284.5 291  C 1284.5 286.8  1287.8 283.5  1292 283.5  Z " stroke-width="1" stroke="#ffffff" fill="none" />
    </g>
  </defs>
  <g transform="matrix(1 0 0 1 -1280 -279 )">
    <use xlink:href="#widget144" filter="url(#filter143)" />
    <use xlink:href="#widget144" />
  </g>
</svg>