<?xml version="1.0" encoding="utf-8"?>
<svg version="1.1" xmlns:xlink="http://www.w3.org/1999/xlink" width="6px" height="11px" xmlns="http://www.w3.org/2000/svg">
  <g transform="matrix(1 0 0 1 -847 -428 )">
    <path d="M 5.548828125 10.3876953125  C 5.7105468749999915 10.222981770833371  5.7105468749999915 9.950846354166629  5.547656249999989 9.784939236111086  L 1.4285156249999886 5.589518229166629  C 1.40625 5.566840277777828  1.3921874999999915 5.535807291666629  1.3921874999999915 5.5  C 1.3921874999999915 5.464192708333371  1.40625 5.433159722222172  1.4296875 5.409288194444457  L 5.547656249999989 1.2150607638889142  C 5.7105468749999915 1.0491536458333712  5.7105468749999915 0.7770182291666288  5.547656249999989 0.6111111111110858  C 5.384765625 0.4452039930555429  5.1175781250000085 0.4452039930555429  4.9546874999999915 0.6111111111110858  L 0.45234375000001137 5.198025173611086  C 0.2894531250000085 5.363932291666629  0.2894531250000085 5.636067708333371  0.45234375000001137 5.801974826388914  C 0.4535156250000085 5.803168402777828  0.4535156250000085 5.803168402777828  0.4546874999999915 5.803168402777828  L 4.955859374999989 10.3876953125  C 5.1187499999999915 10.553602430555543  5.385937500000011 10.553602430555543  5.548828125 10.3876953125  Z " fill-rule="nonzero" fill="#2589ff" stroke="none" transform="matrix(1 0 0 1 847 428 )" />
  </g>
</svg>