<?xml version="1.0" encoding="utf-8"?>
<svg version="1.1" xmlns:xlink="http://www.w3.org/1999/xlink" width="6px" height="10px" xmlns="http://www.w3.org/2000/svg">
  <g transform="matrix(1 0 0 1 -9 -10 )">
    <path d="M 1.4526315789473667 9.75  L 5.873684210526317 5.5  C 6 5.375  6 5.125  6 5  C 6 4.875  6 4.625  5.873684210526317 4.5  L 1.4526315789473685 0.125  C 1.1999999999999993 0  0.6947368421052644 0  0.4421052631578952 0.125  C 0.18947368421052602 0.25  0.3157894736842106 0.875  0.4421052631578952 1.125  L 4.484210526315788 5  L 0.568421052631578 8.874999999999996  C 0.31578947368420884 9.125  0.31578947368420884 9.499999999999996  0.568421052631578 9.75  C 0.8210526315789473 9.999999999999996  1.1999999999999993 9.999999999999996  1.4526315789473667 9.75  Z " fill-rule="nonzero" fill="#000000" stroke="none" transform="matrix(1 0 0 1 9 10 )" />
  </g>
</svg>