<?xml version="1.0" encoding="utf-8"?>
<svg version="1.1" xmlns:xlink="http://www.w3.org/1999/xlink" width="41px" height="23px" xmlns="http://www.w3.org/2000/svg">
  <defs>
    <mask fill="white" id="clip136">
      <path d="M 0 23  L 0 0  C 0 0  12.111111111111086 0  18.166666666666742 0  C 18.78395061728429 0  20.018518518519386 0  20.018518518519386 0  L 41 0  L 41 23  L 0 23  Z " fill-rule="evenodd" />
    </mask>
  </defs>
  <g transform="matrix(1 0 0 1 -1138 -284 )">
    <path d="M 0 23  L 0 0  C 0 0  12.111111111111086 0  18.166666666666742 0  C 18.78395061728429 0  20.018518518519386 0  20.018518518519386 0  L 41 0  L 41 23  L 0 23  Z " fill-rule="nonzero" fill="#ffffff" stroke="none" transform="matrix(1 0 0 1 1138 284 )" />
    <path d="M 0 23  L 0 0  C 0 0  12.111111111111086 0  18.166666666666742 0  C 18.78395061728429 0  20.018518518519386 0  20.018518518519386 0  L 41 0  L 41 23  L 0 23  Z " stroke-width="2" stroke="#ffffff" fill="none" transform="matrix(1 0 0 1 1138 284 )" mask="url(#clip136)" />
  </g>
</svg>