<?xml version="1.0" encoding="utf-8"?>
<svg version="1.1" xmlns:xlink="http://www.w3.org/1999/xlink" width="46px" height="24px" xmlns="http://www.w3.org/2000/svg">
  <defs>
    <mask fill="white" id="clip137">
      <path d="M 0 22  L 0 2  C 0 0.8799999999999955  0.8799999999999955 0  2 0  L 32.58422939067964 0  L 44 0  C 45.120000000000005 0  46 0.8799999999999955  46 2  L 46 22  C 46 23.120000000000005  45.120000000000005 24  44 24  L 2 24  C 0.8799999999999955 24  0 23.120000000000005  0 22  Z " fill-rule="evenodd" />
    </mask>
  </defs>
  <g transform="matrix(1 0 0 1 -587 -134 )">
    <path d="M 0 22  L 0 2  C 0 0.8799999999999955  0.8799999999999955 0  2 0  L 32.58422939067964 0  L 44 0  C 45.120000000000005 0  46 0.8799999999999955  46 2  L 46 22  C 46 23.120000000000005  45.120000000000005 24  44 24  L 2 24  C 0.8799999999999955 24  0 23.120000000000005  0 22  Z " fill-rule="nonzero" fill="#02a7f0" stroke="none" transform="matrix(1 0 0 1 587 134 )" />
    <path d="M 0 22  L 0 2  C 0 0.8799999999999955  0.8799999999999955 0  2 0  L 32.58422939067964 0  L 44 0  C 45.120000000000005 0  46 0.8799999999999955  46 2  L 46 22  C 46 23.120000000000005  45.120000000000005 24  44 24  L 2 24  C 0.8799999999999955 24  0 23.120000000000005  0 22  Z " stroke-width="2" stroke="#02a7f0" fill="none" transform="matrix(1 0 0 1 587 134 )" mask="url(#clip137)" />
  </g>
</svg>