<?xml version="1.0" encoding="utf-8"?>
<svg version="1.1" xmlns:xlink="http://www.w3.org/1999/xlink" width="65px" height="24px" xmlns="http://www.w3.org/2000/svg">
  <defs>
    <mask fill="white" id="clip135">
      <path d="M 0 22  L 0 2  C 0 0.8799999999999955  1.0399999999999991 0  2.3636363636363336 0  L 25.579593299290178 0  L 29.173918909801525 0  L 62.636363636363605 0  C 63.96 0  65 0.8799999999999955  65 2  L 65 14.518518518519357  L 65 22  C 65 23.120000000000005  63.96 24  62.636363636363605 24  L 2.3636363636363336 24  C 1.0399999999999991 24  0 23.120000000000005  0 22  Z " fill-rule="evenodd" />
    </mask>
  </defs>
  <g transform="matrix(1 0 0 1 -326 -180 )">
    <path d="M 0 22  L 0 2  C 0 0.8799999999999955  1.0399999999999991 0  2.3636363636363336 0  L 25.579593299290178 0  L 29.173918909801525 0  L 62.636363636363605 0  C 63.96 0  65 0.8799999999999955  65 2  L 65 14.518518518519357  L 65 22  C 65 23.120000000000005  63.96 24  62.636363636363605 24  L 2.3636363636363336 24  C 1.0399999999999991 24  0 23.120000000000005  0 22  Z " fill-rule="nonzero" fill="#02a7f0" stroke="none" transform="matrix(1 0 0 1 326 180 )" />
    <path d="M 0 22  L 0 2  C 0 0.8799999999999955  1.0399999999999991 0  2.3636363636363336 0  L 25.579593299290178 0  L 29.173918909801525 0  L 62.636363636363605 0  C 63.96 0  65 0.8799999999999955  65 2  L 65 14.518518518519357  L 65 22  C 65 23.120000000000005  63.96 24  62.636363636363605 24  L 2.3636363636363336 24  C 1.0399999999999991 24  0 23.120000000000005  0 22  Z " stroke-width="2" stroke="#02a7f0" fill="none" transform="matrix(1 0 0 1 326 180 )" mask="url(#clip135)" />
  </g>
</svg>