<?xml version="1.0" encoding="utf-8"?>
<svg version="1.1" xmlns:xlink="http://www.w3.org/1999/xlink" width="61px" height="24px" xmlns="http://www.w3.org/2000/svg">
  <defs>
    <mask fill="white" id="clip138">
      <path d="M 0 22  L 0 2  C 0 0.8799999999999955  0.975999999999995 0  2.2181818181818183 0  L 58.78181818181818 0  C 60.02400000000001 0  61 0.8799999999999955  61 2  L 61 14.518518518519357  L 61 22  C 61 23.120000000000005  60.02400000000001 24  58.78181818181818 24  L 2.2181818181818183 24  C 0.975999999999995 24  0 23.120000000000005  0 22  Z " fill-rule="evenodd" />
    </mask>
  </defs>
  <g transform="matrix(1 0 0 1 -340 -337 )">
    <path d="M 0 22  L 0 2  C 0 0.8799999999999955  0.975999999999995 0  2.2181818181818183 0  L 58.78181818181818 0  C 60.02400000000001 0  61 0.8799999999999955  61 2  L 61 14.518518518519357  L 61 22  C 61 23.120000000000005  60.02400000000001 24  58.78181818181818 24  L 2.2181818181818183 24  C 0.975999999999995 24  0 23.120000000000005  0 22  Z " fill-rule="nonzero" fill="#02a7f0" stroke="none" transform="matrix(1 0 0 1 340 337 )" />
    <path d="M 0 22  L 0 2  C 0 0.8799999999999955  0.975999999999995 0  2.2181818181818183 0  L 58.78181818181818 0  C 60.02400000000001 0  61 0.8799999999999955  61 2  L 61 14.518518518519357  L 61 22  C 61 23.120000000000005  60.02400000000001 24  58.78181818181818 24  L 2.2181818181818183 24  C 0.975999999999995 24  0 23.120000000000005  0 22  Z " stroke-width="2" stroke="#02a7f0" fill="none" transform="matrix(1 0 0 1 340 337 )" mask="url(#clip138)" />
  </g>
</svg>