<?xml version="1.0" encoding="utf-8"?>
<svg version="1.1" xmlns:xlink="http://www.w3.org/1999/xlink" width="56px" height="24px" xmlns="http://www.w3.org/2000/svg">
  <defs>
    <mask fill="white" id="clip140">
      <path d="M 0 22  L 0 2  C 0 0.8799999999999955  0.8959999999999954 0  2.036363636363636 0  L 53.96363636363636 0  C 55.104000000000006 0  56 0.8799999999999955  56 2  L 56 14.518518518519357  L 56 22  C 56 23.120000000000005  55.104000000000006 24  53.96363636363636 24  L 2.036363636363636 24  C 0.8959999999999954 24  0 23.120000000000005  0 22  Z " fill-rule="evenodd" />
    </mask>
  </defs>
  <g transform="matrix(1 0 0 1 -400 -235 )">
    <path d="M 0 22  L 0 2  C 0 0.8799999999999955  0.8959999999999954 0  2.036363636363636 0  L 53.96363636363636 0  C 55.104000000000006 0  56 0.8799999999999955  56 2  L 56 14.518518518519357  L 56 22  C 56 23.120000000000005  55.104000000000006 24  53.96363636363636 24  L 2.036363636363636 24  C 0.8959999999999954 24  0 23.120000000000005  0 22  Z " fill-rule="nonzero" fill="#02a7f0" stroke="none" transform="matrix(1 0 0 1 400 235 )" />
    <path d="M 0 22  L 0 2  C 0 0.8799999999999955  0.8959999999999954 0  2.036363636363636 0  L 53.96363636363636 0  C 55.104000000000006 0  56 0.8799999999999955  56 2  L 56 14.518518518519357  L 56 22  C 56 23.120000000000005  55.104000000000006 24  53.96363636363636 24  L 2.036363636363636 24  C 0.8959999999999954 24  0 23.120000000000005  0 22  Z " stroke-width="2" stroke="#02a7f0" fill="none" transform="matrix(1 0 0 1 400 235 )" mask="url(#clip140)" />
  </g>
</svg>